<svg width="95" height="95" viewBox="0 0 95 95" fill="none" xmlns="http://www.w3.org/2000/svg">
<path d="M95 44.5313C95 45.3186 94.6872 46.0738 94.1305 46.6305C93.5737 47.1873 92.8186 47.5 92.0312 47.5H2.96875C2.18139 47.5 1.42628 47.1873 0.869527 46.6305C0.312778 46.0738 0 45.3186 0 44.5313C0 43.7439 0.312778 42.9888 0.869527 42.4321C1.42628 41.8753 2.18139 41.5625 2.96875 41.5625H13.3297L30.9566 17.2893C31.4908 16.5559 32.1859 15.9547 32.9886 15.5318C33.7914 15.1089 34.6803 14.8756 35.5872 14.8498C36.4942 14.824 37.3949 15.0064 38.2204 15.383C39.0459 15.7595 39.774 16.3203 40.349 17.0221L45.1176 22.5514L45.1918 22.6368C45.4681 22.9839 45.8191 23.2642 46.2188 23.4569C46.6184 23.6495 47.0563 23.7496 47.5 23.7496C47.9437 23.7496 48.3816 23.6495 48.7812 23.4569C49.1809 23.2642 49.5319 22.9839 49.8082 22.6368L49.8824 22.5514L54.651 17.0221C55.226 16.3203 55.9541 15.7595 56.7796 15.383C57.6051 15.0064 58.5058 14.824 59.4128 14.8498C60.3197 14.8756 61.2086 15.1089 62.0114 15.5318C62.8141 15.9547 63.5092 16.5559 64.0434 17.2893L81.6703 41.5625H92.0312C92.8186 41.5625 93.5737 41.8753 94.1305 42.4321C94.6872 42.9888 95 43.7439 95 44.5313ZM66.7969 53.4375C63.5112 53.4382 60.341 54.6496 57.8923 56.8403C55.4435 59.031 53.8879 62.0472 53.5229 65.3125H41.4771C41.1112 62.0502 39.557 59.0368 37.1109 56.8474C34.6649 54.658 31.4984 53.4459 28.2156 53.4423C24.9328 53.4387 21.7637 54.644 19.3129 56.828C16.8621 59.0121 15.3012 62.0221 14.9282 65.2836C14.5552 68.5451 15.396 71.8298 17.2904 74.5108C19.1847 77.1919 21.9999 79.0816 25.1987 79.8193C28.3975 80.5571 31.756 80.0912 34.6332 78.5106C37.5104 76.9301 39.705 74.3455 40.798 71.25H54.202C55.0184 73.5592 56.4539 75.5995 58.3515 77.1478C60.2492 78.6962 62.536 79.6932 64.962 80.0296C67.388 80.3661 69.8598 80.0292 72.1073 79.0557C74.3547 78.0822 76.2913 76.5096 77.7053 74.5098C79.1193 72.51 79.9564 70.1599 80.125 67.7165C80.2936 65.2731 79.7872 62.8304 78.6613 60.6553C77.5353 58.4803 75.8331 56.6566 73.7406 55.3836C71.6482 54.1107 69.2461 53.4375 66.7969 53.4375Z" fill="#CF1D05"/>
</svg>
