<svg width="95" height="95" viewBox="0 0 95 95" fill="none" xmlns="http://www.w3.org/2000/svg">
<path d="M72.9385 23.7834C70.8813 18.7239 67.3621 14.3928 62.8308 11.3437C58.2994 8.29455 52.9617 6.66589 47.5 6.66589C42.0383 6.66589 36.7007 8.29455 32.1693 11.3437C27.638 14.3928 24.1188 18.7239 22.0616 23.7834C17.4848 25.813 13.5953 29.1272 10.865 33.3238C8.13466 37.5204 6.68078 42.4191 6.67972 47.4258C6.64261 61.1971 18.2319 73.1055 31.9846 73.4765C36.6272 73.5853 41.2148 72.4529 45.2735 70.1961V86.0937C45.2735 86.6843 45.508 87.2506 45.9256 87.6682C46.3432 88.0857 46.9095 88.3203 47.5 88.3203C48.0905 88.3203 48.6569 88.0857 49.0744 87.6682C49.492 87.2506 49.7266 86.6843 49.7266 86.0937V70.1961C53.5857 72.3428 57.9278 73.4717 62.3438 73.4765H63.0006C76.7682 73.1055 88.3575 61.1933 88.3203 47.4258C88.3193 42.4191 86.8654 37.5204 84.1351 33.3238C81.4047 29.1272 77.5153 25.813 72.9385 23.7834ZM62.9004 69.0234C58.1798 69.1479 53.5497 67.7132 49.7266 64.9414V48.8767L66.3071 40.5865C66.8356 40.3227 67.2377 39.8598 67.4249 39.2996C67.6121 38.7394 67.5691 38.1277 67.3053 37.5992C67.0415 37.0707 66.5786 36.6686 66.0184 36.4814C65.4582 36.2942 64.8465 36.3372 64.318 36.601L49.7266 43.8967V32.6562C49.7266 32.0657 49.492 31.4994 49.0744 31.0818C48.6569 30.6643 48.0905 30.4297 47.5 30.4297C46.9095 30.4297 46.3432 30.6643 45.9256 31.0818C45.508 31.4994 45.2735 32.0657 45.2735 32.6562V52.8029L30.6821 45.5072C30.1535 45.2434 29.5419 45.2004 28.9817 45.3876C28.4214 45.5748 27.9585 45.9769 27.6948 46.5054C27.431 47.034 27.388 47.6456 27.5752 48.2058C27.7624 48.7661 28.1645 49.229 28.693 49.4928L45.2735 57.783V64.9414C41.4476 67.7077 36.8194 69.1418 32.0996 69.0234C20.7033 68.7377 11.1032 58.8554 11.1328 47.448C11.1326 43.1592 12.4186 38.9688 14.8246 35.4184C17.2305 31.8679 20.646 29.1206 24.6295 27.5314C24.9188 27.4146 25.1802 27.2382 25.3969 27.0138C25.6136 26.7894 25.7808 26.522 25.8875 26.2289C27.5055 21.7972 30.4467 17.97 34.3126 15.2659C38.1785 12.5618 42.7822 11.1115 47.5 11.1115C52.2178 11.1115 56.8216 12.5618 60.6875 15.2659C64.5534 17.97 67.4946 21.7972 69.1125 26.2289C69.2193 26.522 69.3864 26.7894 69.6031 27.0138C69.8199 27.2382 70.0813 27.4146 70.3705 27.5314C74.3526 29.1195 77.7671 31.865 80.173 35.4133C82.5789 38.9617 83.8657 43.1498 83.8672 47.4369C83.8969 58.848 74.2967 68.7265 62.9004 69.0234Z" fill="#CF1D05"/>
</svg>
