<svg width="95" height="95" viewBox="0 0 95 95" fill="none" xmlns="http://www.w3.org/2000/svg">
<path d="M27.2362 4.8772H46.1225C50.4484 4.8772 52.8946 5.50488 55.7684 8.32095L56.1009 8.65345L78.0493 30.9598C80.6821 33.6571 81.5168 35.6487 81.7254 39.162L81.7662 40.073L81.7831 41.0552L81.7865 77.6777C81.7865 85.7816 77.8525 89.9548 69.9488 90.1176L69.4603 90.1227H27.2362C19.2087 90.1227 15.0779 86.1514 14.915 78.1714L14.9099 77.6777V17.3612C14.9099 9.25738 18.8813 5.04684 26.7493 4.88229L27.2362 4.8772ZM45.2471 11.2778H27.5941C23.5905 11.2778 21.453 13.4018 21.3173 17.1051L21.3105 17.4817V77.559C21.3105 81.4065 23.3225 83.5779 27.1632 83.7136L27.5534 83.7221H69.143C73.1449 83.7221 75.2468 81.6728 75.3791 77.9373L75.3859 77.559V41.8543H52.7216C47.9326 41.8543 45.393 39.5284 45.2522 34.8022L45.2471 34.3781V11.2778ZM48.3567 65.4855C57.2511 65.4855 62.7967 71.5977 62.7967 76.0271C62.7967 77.4725 61.9163 78.2426 59.4802 78.3071L59.1392 78.3105H37.5742C34.8616 78.3105 33.8997 77.5386 33.8997 76.0271C33.8997 71.5994 39.4471 65.4855 48.3567 65.4855ZM48.3567 47.4406C52.0312 47.4406 55.2238 50.5824 55.2238 54.8234C55.2238 59.1154 52.0481 62.4133 48.3567 62.4133C44.6822 62.4133 41.4896 59.1154 41.4896 54.8591C41.4896 50.6519 44.6822 47.4406 48.3567 47.4406ZM51.2508 12.5111V33.6232C51.2508 35.1211 51.814 35.7726 53.1729 35.8438L53.4375 35.8506H74.1509L51.2508 12.5111Z" fill="#CF1D05"/>
</svg>
